<svg xmlns="http://www.w3.org/2000/svg" xmlns:xlink="http://www.w3.org/1999/xlink" width="56" height="56" viewBox="0 0 56 56"><defs><clipPath id="b"><rect width="56" height="56"/></clipPath></defs><g id="a" clip-path="url(#b)"><path d="M1.85,43.92,10.58,9H28.507l-1.242,5.005H14.926l-1.591,6.4h9.623l-1.2,4.889H12.133L8.718,38.8H21.057l-1.28,5.122Z" transform="translate(-1.85 -8.198)" fill="#e2c376"/><path d="M11.793,44.713A13.169,13.169,0,0,1,5.7,43.219a10.715,10.715,0,0,1-4.385-3.9L4.5,33.034a8.79,8.79,0,0,0,1.649,3.317,9.036,9.036,0,0,0,2.794,2.367,6.878,6.878,0,0,0,3.318.873,6.05,6.05,0,0,0,2.968-.737,5.983,5.983,0,0,0,2.154-1.979A4.788,4.788,0,0,0,18.2,34.2a4.373,4.373,0,0,0-.737-2.444,9.471,9.471,0,0,0-2.212-2.25l-3.492-2.755A16.041,16.041,0,0,1,8.223,23.12,7.12,7.12,0,0,1,7.1,19.143a9.52,9.52,0,0,1,1.494-5.219,11.012,11.012,0,0,1,4-3.744,11.152,11.152,0,0,1,5.529-1.4,13.352,13.352,0,0,1,5.355,1.125,11.969,11.969,0,0,1,4.307,3.065l-3.1,6.169A9.177,9.177,0,0,0,21.688,15.3a6.848,6.848,0,0,0-4.152-1.474,4.729,4.729,0,0,0-3.337,1.3,4.2,4.2,0,0,0-1.4,3.2,3.506,3.506,0,0,0,.621,1.979,8.544,8.544,0,0,0,1.94,1.94l3.57,2.716A13.969,13.969,0,0,1,22.658,28.8a8.348,8.348,0,0,1,1.2,4.423,10.533,10.533,0,0,1-1.649,5.723,12.385,12.385,0,0,1-4.385,4.19A11.9,11.9,0,0,1,11.793,44.713Z" transform="translate(28.056 10.486)" fill="#e2c376"/></g></svg>