<svg xmlns="http://www.w3.org/2000/svg" xmlns:xlink="http://www.w3.org/1999/xlink" width="32" height="32" viewBox="0 0 32 32"><defs><clipPath id="b"><rect width="32" height="32"/></clipPath></defs><g id="a" clip-path="url(#b)"><rect width="32" height="32" fill="#1a1a1a"/><path d="M1.85,24,5.6,9h7.7l-.533,2.15h-5.3L6.783,13.9h4.133L10.4,16H6.267L4.8,21.8h5.3L9.55,24Z" transform="translate(1 -6)" fill="#e2c376"/><path d="M5.817,24.217A5.656,5.656,0,0,1,3.2,23.575,4.6,4.6,0,0,1,1.317,21.9l1.367-2.7a3.776,3.776,0,0,0,.708,1.425,3.881,3.881,0,0,0,1.2,1.017,2.954,2.954,0,0,0,1.425.375A2.6,2.6,0,0,0,7.292,21.7a2.57,2.57,0,0,0,.925-.85,2.057,2.057,0,0,0,.35-1.15,1.879,1.879,0,0,0-.317-1.05,4.068,4.068,0,0,0-.95-.967L5.8,16.5a6.89,6.89,0,0,1-1.517-1.558A3.058,3.058,0,0,1,3.8,13.233a4.089,4.089,0,0,1,.642-2.242A4.73,4.73,0,0,1,6.158,9.383a4.79,4.79,0,0,1,2.375-.6,5.735,5.735,0,0,1,2.3.483,5.141,5.141,0,0,1,1.85,1.317l-1.333,2.65a3.942,3.942,0,0,0-1.283-1.65,2.941,2.941,0,0,0-1.783-.633,2.031,2.031,0,0,0-1.433.558,1.8,1.8,0,0,0-.6,1.375,1.506,1.506,0,0,0,.267.85,3.67,3.67,0,0,0,.833.833l1.533,1.167a6,6,0,0,1,1.6,1.65,3.586,3.586,0,0,1,.517,1.9,4.525,4.525,0,0,1-.708,2.458,5.32,5.32,0,0,1-1.883,1.8A5.11,5.11,0,0,1,5.817,24.217Z" transform="translate(16 4)" fill="#e2c376"/></g></svg>