<svg width="221" height="40" viewBox="0 0 221 40" fill="none" xmlns="http://www.w3.org/2000/svg">
<g clip-path="url(#clip0_44_57)">
<path d="M20.5004 40C31.5464 40 40.5004 31.046 40.5004 20V6C40.5004 4.4087 39.8683 2.88258 38.7431 1.75736C37.6178 0.632141 36.0917 0 34.5004 0L21.5004 0V8.774C21.5004 10.776 21.6224 12.85 22.6724 14.554C23.4241 15.7752 24.4297 16.8204 25.6209 17.6188C26.8121 18.4171 28.1611 18.9499 29.5764 19.181L29.9594 19.243C30.1173 19.297 30.2544 19.399 30.3514 19.5347C30.4485 19.6704 30.5007 19.8331 30.5007 20C30.5007 20.1669 30.4485 20.3296 30.3514 20.4653C30.2544 20.601 30.1173 20.703 29.9594 20.757L29.5764 20.819C27.5086 21.1568 25.5991 22.1356 24.1175 23.6171C22.636 25.0987 21.6572 27.0082 21.3194 29.076L21.2574 29.459C21.2034 29.6169 21.1014 29.754 20.9657 29.851C20.83 29.9481 20.6673 30.0003 20.5004 30.0003C20.3335 30.0003 20.1709 29.9481 20.0351 29.851C19.8994 29.754 19.7974 29.6169 19.7434 29.459L19.6814 29.076C19.4503 27.6607 18.9175 26.3118 18.1191 25.1205C17.3208 23.9293 16.2756 22.9237 15.0544 22.172C13.3504 21.122 11.2764 21 9.27441 21H0.524414C1.04741 31.581 9.79041 40 20.5004 40Z" fill="#333333"/>
<path d="M0.5 19H9.274C11.276 19 13.35 18.878 15.054 17.828C16.386 17.0073 17.5073 15.886 18.328 14.554C19.378 12.85 19.5 10.776 19.5 8.774V0H6.5C4.9087 0 3.38258 0.632141 2.25736 1.75736C1.13214 2.88258 0.5 4.4087 0.5 6L0.5 19ZM46.955 2C46.955 2.53043 46.7443 3.03914 46.3692 3.41421C45.9941 3.78929 45.4854 4 44.955 4C44.4246 4 43.9159 3.78929 43.5408 3.41421C43.1657 3.03914 42.955 2.53043 42.955 2C42.955 1.46957 43.1657 0.960859 43.5408 0.585786C43.9159 0.210714 44.4246 0 44.955 0C45.4854 0 45.9941 0.210714 46.3692 0.585786C46.7443 0.960859 46.955 1.46957 46.955 2ZM212.211 12.104C217.802 12.104 220.5 16.009 220.5 20.532V29.027H214.649V21.54C214.649 19.49 213.901 17.798 211.756 17.798C209.611 17.798 208.896 19.49 208.896 21.54V29.026H203.045V21.54C203.045 19.49 202.33 17.798 200.184 17.798C198.039 17.798 197.291 19.49 197.291 21.54V29.026H191.441V20.531C191.441 16.008 194.138 12.103 199.729 12.103C202.785 12.103 204.995 13.307 206.003 15.292C207.075 13.307 209.416 12.102 212.211 12.102V12.104ZM180.927 23.82C182.812 23.82 183.625 22.095 183.625 20.044V12.754H189.475V20.76C189.475 25.544 186.68 29.515 180.927 29.515C175.173 29.515 172.378 25.545 172.378 20.76V12.754H178.229V20.044C178.229 22.094 179.041 23.82 180.927 23.82ZM163.775 29.547C160.102 29.547 157.729 28.278 156.331 25.805L160.557 23.429C161.142 24.47 162.019 24.991 163.482 24.991C164.685 24.991 165.237 24.568 165.237 24.047C165.237 22.062 156.656 24.08 156.656 17.767C156.656 14.707 159.256 12.234 163.677 12.234C167.545 12.234 169.658 14.121 170.601 15.944L166.375 18.352C166.018 17.376 164.912 16.79 163.807 16.79C162.962 16.79 162.507 17.148 162.507 17.636C162.507 19.654 171.088 17.799 171.088 23.917C171.088 27.334 167.74 29.547 163.775 29.547ZM143.333 36.512H137.482V20.858C137.482 15.878 141.22 12.266 146.421 12.266C151.492 12.266 155.36 16.139 155.36 20.858C155.36 26.065 151.914 29.515 146.746 29.515C145.543 29.515 144.341 29.157 143.333 28.603V36.512ZM146.421 24.015C148.274 24.015 149.509 22.583 149.509 20.89C149.509 19.166 148.274 17.766 146.421 17.766C144.568 17.766 143.333 19.166 143.333 20.891C143.333 22.583 144.568 24.015 146.421 24.015ZM131.621 11.03C129.703 11.03 128.111 9.435 128.111 7.515C128.111 5.595 129.703 4 131.621 4C133.539 4 135.132 5.595 135.132 7.515C135.132 9.435 133.539 11.03 131.621 11.03ZM128.696 12.754H134.547V29.027H128.696V12.754ZM117.47 29.515C112.399 29.515 108.531 25.61 108.531 20.858C108.531 16.139 112.399 12.234 117.47 12.234C122.541 12.234 126.409 16.139 126.409 20.858C126.409 25.61 122.541 29.515 117.47 29.515ZM117.47 24.015C119.323 24.015 120.558 22.583 120.558 20.89C120.558 19.166 119.323 17.734 117.47 17.734C115.617 17.734 114.382 19.166 114.382 20.89C114.382 22.583 115.617 24.015 117.47 24.015ZM97.483 37C93.453 37 90.527 35.21 89.032 32.02L93.875 29.417C94.395 30.524 95.37 31.663 97.385 31.663C99.499 31.663 100.896 30.328 101.059 27.985C100.279 28.669 99.043 29.189 97.191 29.189C92.672 29.189 89.031 25.707 89.031 20.825C89.031 16.107 92.9 12.266 97.971 12.266C103.172 12.266 106.91 15.879 106.91 20.858V27.302C106.91 33.16 102.846 37 97.483 37ZM97.873 23.69C99.628 23.69 100.961 22.485 100.961 20.695C100.961 18.938 99.629 17.766 97.873 17.766C96.15 17.766 94.785 18.938 94.785 20.696C94.785 22.486 96.15 23.689 97.873 23.689V23.69ZM79.107 29.515C74.036 29.515 70.167 25.61 70.167 20.858C70.167 16.139 74.036 12.234 79.107 12.234C84.177 12.234 88.046 16.139 88.046 20.858C88.046 25.61 84.178 29.515 79.107 29.515ZM79.107 24.015C80.96 24.015 82.195 22.583 82.195 20.89C82.195 19.166 80.96 17.734 79.107 17.734C77.254 17.734 76.019 19.166 76.019 20.89C76.019 22.583 77.254 24.015 79.107 24.015ZM59.513 7.06V23.494H69.2V29.027H58.7C54.995 29.027 53.5 27.074 53.5 23.982V7.06H59.513Z" fill="#333333"/>
</g>
<defs>
<clipPath id="clip0_44_57">
<rect width="220" height="40" fill="white" transform="translate(0.5)"/>
</clipPath>
</defs>
</svg>
