<svg width="106" height="40" viewBox="0 0 106 40" fill="none" xmlns="http://www.w3.org/2000/svg">
<path d="M48.6357 35.238H51.3701V24.9237H48.6357V35.238ZM48.6357 23.3152H51.3701V20.8623H48.6357V23.3152Z" fill="#333333"/>
<path d="M53.1318 38.6162H55.8662V34.0723H55.9065C56.4895 34.9569 57.4345 35.54 58.8821 35.54C61.5361 35.54 63.3456 33.4289 63.3456 30.0913C63.3456 26.8743 61.5964 24.6426 58.862 24.6426C57.4546 24.6426 56.4895 25.3061 55.826 26.2108H55.7657V24.9241H53.1318V38.6162ZM58.2991 33.268C56.6705 33.268 55.8059 32.0416 55.8059 30.1717C55.8059 28.322 56.4895 26.8542 58.1985 26.8542C59.8874 26.8542 60.571 28.2214 60.571 30.1717C60.571 32.122 59.6864 33.268 58.2991 33.268Z" fill="#333333"/>
<path d="M68.8011 35.54C71.3746 35.54 73.1439 34.2934 73.1439 32.2225C73.1439 29.8098 71.2339 29.3273 69.5048 28.9654C68.037 28.6638 66.6698 28.5833 66.6698 27.6987C66.6698 26.9548 67.3735 26.5526 68.4392 26.5526C69.6053 26.5526 70.309 26.9548 70.4296 28.0606H72.9027C72.7016 25.9897 71.1937 24.6426 68.4794 24.6426C66.127 24.6426 64.2772 25.7082 64.2772 27.9399C64.2772 30.1918 66.0868 30.6945 67.9365 31.0564C69.3439 31.3378 70.6508 31.4384 70.6508 32.4236C70.6508 33.1474 69.9672 33.6098 68.7608 33.6098C67.5344 33.6098 66.6899 33.0871 66.509 31.9008H63.9756C64.1365 34.0924 65.8053 35.54 68.8011 35.54Z" fill="#333333"/>
<path d="M83.5255 35.2381V24.9238H80.7911V30.8751C80.7911 32.2423 80.007 33.2074 78.7202 33.2074C77.5541 33.2074 77.0112 32.5439 77.0112 31.3375V24.9238H74.2969V31.8C74.2969 34.0518 75.5837 35.5196 77.8758 35.5196C79.3234 35.5196 80.1276 34.9767 80.8314 34.0317H80.8917V35.2381H83.5255Z" fill="#333333"/>
<path d="M85.2939 35.2384H88.0284V29.2468C88.0284 27.8796 88.7723 26.995 89.8781 26.995C90.8834 26.995 91.4665 27.5981 91.4665 28.7643V35.2384H94.2009V29.2468C94.2009 27.8796 94.9046 26.995 96.0506 26.995C97.0559 26.995 97.639 27.5981 97.639 28.7643V35.2384H100.373V28.3019C100.373 26.05 99.1469 24.6426 96.9755 24.6426C95.6686 24.6426 94.5829 25.3262 93.8792 26.4521H93.839C93.3363 25.3664 92.2908 24.6426 90.9839 24.6426C89.5564 24.6426 88.5511 25.3664 87.9881 26.3114H87.9278V24.9241H85.2939V35.2384Z" fill="#333333"/>
<path d="M48.6758 17.572H51.4102V3.19629H48.6758V17.572Z" fill="#333333"/>
<path d="M58.0964 17.874C61.2933 17.874 63.4848 15.5015 63.4848 12.4253C63.4848 9.34905 61.2933 6.97656 58.0964 6.97656C54.8996 6.97656 52.708 9.34905 52.708 12.4253C52.708 15.5015 54.8996 17.874 58.0964 17.874ZM58.0964 15.783C56.4075 15.783 55.4827 14.4359 55.4827 12.4253C55.4827 10.4147 56.4075 9.04747 58.0964 9.04747C59.7652 9.04747 60.7102 10.4147 60.7102 12.4253C60.7102 14.4359 59.7652 15.783 58.0964 15.783Z" fill="#333333"/>
<path d="M69.2995 21.091C70.8276 21.091 72.1546 20.7291 73.0191 19.9248C73.7831 19.2211 74.2456 18.2359 74.2456 16.7883V7.25804H71.6117V8.34376H71.5715C70.9482 7.4792 70.0032 6.97656 68.7164 6.97656C66.1027 6.97656 64.2529 8.94694 64.2529 12.0232C64.2529 15.1396 66.5048 16.9491 68.7969 16.9491C70.1038 16.9491 70.8879 16.4264 71.4911 15.7428H71.5514V16.8687C71.5514 18.2761 70.8075 19.02 69.2593 19.02C67.9926 19.02 67.4096 18.5174 67.1884 17.874H64.4741C64.7556 19.8846 66.4847 21.091 69.2995 21.091ZM69.2593 14.7576C67.8519 14.7576 66.927 13.7322 66.927 11.983C66.927 10.2539 67.8519 9.1681 69.2392 9.1681C70.8879 9.1681 71.6921 10.4549 71.6921 11.9629C71.6921 13.4909 70.9884 14.7576 69.2593 14.7576Z" fill="#333333"/>
<path d="M80.8923 17.874C84.0891 17.874 86.2807 15.5015 86.2807 12.4253C86.2807 9.34905 84.0891 6.97656 80.8923 6.97656C77.6955 6.97656 75.5039 9.34905 75.5039 12.4253C75.5039 15.5015 77.6955 17.874 80.8923 17.874ZM80.8923 15.783C79.2034 15.783 78.2785 14.4359 78.2785 12.4253C78.2785 10.4147 79.2034 9.04747 80.8923 9.04747C82.5611 9.04747 83.5061 10.4147 83.5061 12.4253C83.5061 14.4359 82.5611 15.783 80.8923 15.783Z" fill="#333333"/>
<path d="M88.6777 13.6317H100.5V11.2793H88.6777V13.6317Z" fill="#333333"/>
<path d="M101.367 23.1718C101.367 22.7091 101.742 22.334 102.205 22.334H103.88C104.343 22.334 104.718 22.7091 104.718 23.1718C104.718 23.6344 104.343 24.0095 103.88 24.0095H102.205C101.742 24.0095 101.367 23.6344 101.367 23.1718Z" fill="#333333"/>
<path fill-rule="evenodd" clip-rule="evenodd" d="M21.0215 0C32.0672 0 41.0215 8.9543 41.0215 20C41.0215 31.0457 32.0672 40 21.0215 40C9.97579 40 1.02148 31.0457 1.02148 20C1.02148 8.9543 9.97579 0 21.0215 0ZM20.2986 1.49659C18.017 1.81769 15.8444 3.65108 14.1579 6.7174C13.6687 7.60683 13.2273 8.58946 12.8426 9.65044C15.1358 9.07417 17.6549 8.73442 20.2986 8.68187V1.49659ZM11.1523 10.1308C11.6306 8.62958 12.2158 7.2484 12.8911 6.02065C13.7271 4.50059 14.7193 3.18795 15.8372 2.17977C9.75828 3.94523 4.96671 8.73679 3.20126 14.8157C4.20943 13.6978 5.52208 12.7056 7.04214 11.8696C8.26989 11.1943 9.65106 10.6091 11.1523 10.1308ZM10.6719 11.8211C10.0956 14.1143 9.75591 16.6334 9.70336 19.2771H2.51807C2.83918 16.9954 4.67257 14.8228 7.73889 13.1364C8.62832 12.6472 9.61095 12.2058 10.6719 11.8211ZM11.1495 19.2771C11.2092 16.392 11.6245 13.6834 12.3117 11.2902C14.7049 10.603 17.4136 10.1876 20.2986 10.1279V13.2508C19.2223 16.0062 17.0271 18.2012 14.2716 19.2771H11.1495ZM9.70336 20.7229H2.51807C2.83918 23.0046 4.67257 25.1771 7.73889 26.8636C8.62832 27.3528 9.61095 27.7942 10.6719 28.1789C10.0956 25.8857 9.75591 23.3666 9.70336 20.7229ZM12.3117 28.7098C11.6245 26.3166 11.2092 23.608 11.1495 20.7229H14.2716C17.0271 21.7988 19.2224 23.9938 20.2986 26.7492V29.8721C17.4136 29.8124 14.7049 29.397 12.3117 28.7098ZM11.1523 29.8692C9.65106 29.3909 8.26989 28.8057 7.04214 28.1304C5.52208 27.2944 4.20943 26.3022 3.20126 25.1843C4.96671 31.2632 9.75828 36.0548 15.8372 37.8202C14.7193 36.812 13.7271 35.4994 12.8911 33.9793C12.2158 32.7516 11.6306 31.3704 11.1523 29.8692ZM20.2986 38.5034C18.017 38.1823 15.8444 36.3489 14.1579 33.2826C13.6687 32.3932 13.2273 31.4105 12.8426 30.3496C15.1358 30.9258 17.6549 31.2656 20.2986 31.3181V38.5034ZM26.2058 37.8202C27.3237 36.812 28.3159 35.4994 29.152 33.9793C29.8272 32.7516 30.4124 31.3704 30.8907 29.8692C32.3919 29.3909 33.7731 28.8057 35.0009 28.1304C36.5209 27.2944 37.8336 26.3022 38.8417 25.1843C37.0763 31.2632 32.2847 36.0548 26.2058 37.8202ZM29.2004 30.3496C28.8157 31.4105 28.3743 32.3932 27.8851 33.2826C26.1987 36.3489 24.0261 38.1823 21.7444 38.5034V31.3181C24.3881 31.2656 26.9072 30.9258 29.2004 30.3496ZM31.3711 28.1789C32.432 27.7942 33.4147 27.3528 34.3041 26.8636C37.3704 25.1771 39.2038 23.0046 39.5249 20.7229H32.3396C32.2871 23.3666 31.9473 25.8857 31.3711 28.1789ZM30.8936 20.7229C30.8339 23.608 30.4185 26.3166 29.7313 28.7098C27.3381 29.397 24.6295 29.8124 21.7444 29.8721V26.7515C22.8203 23.9951 25.016 21.7991 27.7723 20.7229H30.8936ZM32.3396 19.2771H39.5249C39.2038 16.9954 37.3704 14.8228 34.3041 13.1364C33.4147 12.6472 32.432 12.2058 31.3711 11.8211C31.9473 14.1143 32.2871 16.6334 32.3396 19.2771ZM29.7313 11.2902C30.4185 13.6834 30.8339 16.392 30.8936 19.2771H27.7723C25.016 18.2009 22.8203 16.0049 21.7444 13.2485V10.1279C24.6295 10.1876 27.3381 10.603 29.7313 11.2902ZM30.8907 10.1308C32.3919 10.6091 33.7731 11.1943 35.0009 11.8696C36.5209 12.7056 37.8336 13.6978 38.8417 14.8157C37.0763 8.73679 32.2847 3.94523 26.2058 2.17977C27.3237 3.18795 28.3159 4.50059 29.152 6.02065C29.8272 7.2484 30.4124 8.62958 30.8907 10.1308ZM21.7444 1.49659C24.0261 1.81769 26.1987 3.65108 27.8851 6.7174C28.3743 7.60684 28.8157 8.58946 29.2004 9.65044C26.9072 9.07417 24.3881 8.73442 21.7444 8.68187V1.49659Z" fill="#333333"/>
</svg>
