<svg width="170" height="40" viewBox="0 0 170 40" fill="none" xmlns="http://www.w3.org/2000/svg">
<g clip-path="url(#clip0_44_50)">
<path fill-rule="evenodd" clip-rule="evenodd" d="M10.5148 2.5V40H0.5V2.5H10.5148Z" fill="#333333"/>
<path fill-rule="evenodd" clip-rule="evenodd" d="M15.5225 2.5H36.804C43.7178 2.5 49.3225 8.09644 49.3225 15C49.3225 21.9036 43.7178 27.5 36.804 27.5H25.5373V40H15.5225V2.5ZM25.5373 17.5H36.804C38.1868 17.5 39.3077 16.3807 39.3077 15C39.3077 13.6193 38.1868 12.5 36.804 12.5H25.5373V17.5Z" fill="#333333"/>
<path fill-rule="evenodd" clip-rule="evenodd" d="M86.8781 2.5V21.875C86.8781 26.3623 90.5211 30 95.0151 30C99.5091 30 103.152 26.3623 103.152 21.875V2.5H113.167V21.875C113.167 31.8852 105.04 40 95.0151 40C84.9901 40 76.8633 31.8852 76.8633 21.875V2.5H86.8781Z" fill="#333333"/>
<path fill-rule="evenodd" clip-rule="evenodd" d="M53.0783 20C53.0783 10.335 60.9249 2.5 70.6042 2.5H73.1079V12.5H70.6042C66.4559 12.5 63.0931 15.8579 63.0931 20V21.25C63.0931 31.6053 54.686 40 44.3153 40H43.0635V30H44.3153C49.155 30 53.0783 26.0825 53.0783 21.25V20Z" fill="#333333"/>
<path d="M169.5 3.75C169.5 5.82107 167.819 7.5 165.744 7.5C163.67 7.5 161.989 5.82107 161.989 3.75C161.989 1.67893 163.67 0 165.744 0C167.819 0 169.5 1.67893 169.5 3.75Z" fill="#333333"/>
<path d="M123.92 39.9999L128.699 20.018L132.252 32.0392C134.37 39.209 144.541 39.209 146.66 32.0392L150.212 20.018L154.991 39.9999H165.287L157.773 8.57937C155.986 1.10732 145.441 0.830666 143.263 8.19879L139.456 21.0832L135.648 8.1988C133.471 0.830709 122.925 1.10728 121.138 8.57936L113.624 39.9999H123.92Z" fill="#333333"/>
</g>
<defs>
<clipPath id="clip0_44_50">
<rect width="169" height="40" fill="white" transform="translate(0.5)"/>
</clipPath>
</defs>
</svg>
