<svg width="170" height="42" viewBox="0 0 170 42" fill="none" xmlns="http://www.w3.org/2000/svg">
<g clip-path="url(#clip0_44_2)">
<path d="M51.3604 29.3534H63.3124V25.7534H55.6084V12.1934H51.3604V29.3534Z" fill="#333333"/>
<path d="M70.3928 26.9535C68.6888 26.9535 67.8008 25.4655 67.8008 23.2335C67.8008 21.0015 68.6888 19.4895 70.3928 19.4895C72.0968 19.4895 73.0088 21.0015 73.0088 23.2335C73.0088 25.4655 72.0968 26.9535 70.3928 26.9535ZM70.4168 29.7375C74.3768 29.7375 76.9688 26.9295 76.9688 23.2335C76.9688 19.5375 74.3768 16.7295 70.4168 16.7295C66.4808 16.7295 63.8408 19.5375 63.8408 23.2335C63.8408 26.9295 66.4808 29.7375 70.4168 29.7375Z" fill="#333333"/>
<path d="M83.8236 33.6011C85.6476 33.6011 87.2556 33.1931 88.3356 32.2331C89.3196 31.3451 89.9676 30.0011 89.9676 28.1531V17.0651H86.2236V18.3851H86.1756C85.4556 17.3531 84.3516 16.7051 82.7196 16.7051C79.6716 16.7051 77.5596 19.2491 77.5596 22.8491C77.5596 26.6171 80.1276 28.6811 82.8876 28.6811C84.3756 28.6811 85.3116 28.0811 86.0316 27.2651H86.1276V28.4891C86.1276 29.9771 85.4316 30.8411 83.7756 30.8411C82.4796 30.8411 81.8316 30.2891 81.6156 29.6411H77.8236C78.2076 32.2091 80.4396 33.6011 83.8236 33.6011ZM83.7996 25.7771C82.3356 25.7771 81.3756 24.5771 81.3756 22.7291C81.3756 20.8571 82.3356 19.6571 83.7996 19.6571C85.4316 19.6571 86.2956 21.0491 86.2956 22.7051C86.2956 24.4331 85.5036 25.7771 83.7996 25.7771Z" fill="#333333"/>
<path d="M97.6663 26.9535C95.9623 26.9535 95.0743 25.4655 95.0743 23.2335C95.0743 21.0015 95.9623 19.4895 97.6663 19.4895C99.3703 19.4895 100.282 21.0015 100.282 23.2335C100.282 25.4655 99.3703 26.9535 97.6663 26.9535ZM97.6903 29.7375C101.65 29.7375 104.242 26.9295 104.242 23.2335C104.242 19.5375 101.65 16.7295 97.6903 16.7295C93.7543 16.7295 91.1143 19.5375 91.1143 23.2335C91.1143 26.9295 93.7543 29.7375 97.6903 29.7375Z" fill="#333333"/>
<path d="M105.384 29.3534H109.296V17.0654H105.384V29.3534ZM105.384 15.3614H109.296V12.1934H105.384V15.3614Z" fill="#333333"/>
<path d="M110.994 33.4091H114.906V28.0811H114.954C115.722 29.1131 116.85 29.7371 118.434 29.7371C121.65 29.7371 123.786 27.1931 123.786 23.2091C123.786 19.5131 121.794 16.7051 118.53 16.7051C116.85 16.7051 115.65 17.4491 114.81 18.5531H114.738V17.0651H110.994V33.4091ZM117.426 26.7131C115.746 26.7131 114.786 25.3451 114.786 23.3531C114.786 21.3611 115.65 19.8491 117.354 19.8491C119.034 19.8491 119.826 21.2411 119.826 23.3531C119.826 25.4411 118.914 26.7131 117.426 26.7131Z" fill="#333333"/>
<path d="M130.155 29.7371C133.371 29.7371 135.747 28.3451 135.747 25.6571C135.747 22.5131 133.203 21.9611 131.043 21.6011C129.483 21.3131 128.091 21.1931 128.091 20.3291C128.091 19.5611 128.835 19.2011 129.795 19.2011C130.875 19.2011 131.619 19.5371 131.763 20.6411H135.363C135.171 18.2171 133.299 16.7051 129.819 16.7051C126.915 16.7051 124.515 18.0491 124.515 20.6411C124.515 23.5211 126.795 24.0971 128.931 24.4571C130.563 24.7451 132.051 24.8651 132.051 25.9691C132.051 26.7611 131.307 27.1931 130.131 27.1931C128.835 27.1931 128.019 26.5931 127.875 25.3691H124.179C124.299 28.0811 126.555 29.7371 130.155 29.7371Z" fill="#333333"/>
<path d="M141.061 29.7134C142.765 29.7134 143.845 29.0414 144.733 27.8414H144.805V29.3534H148.549V17.0654H144.637V23.9294C144.637 25.3934 143.821 26.4014 142.477 26.4014C141.229 26.4014 140.629 25.6574 140.629 24.3134V17.0654H136.741V25.1294C136.741 27.8654 138.229 29.7134 141.061 29.7134Z" fill="#333333"/>
<path d="M150.25 29.3531H154.162V22.4651C154.162 21.0011 154.882 19.9691 156.106 19.9691C157.282 19.9691 157.834 20.7371 157.834 22.0571V29.3531H161.746V22.4651C161.746 21.0011 162.442 19.9691 163.69 19.9691C164.866 19.9691 165.418 20.7371 165.418 22.0571V29.3531H169.33V21.3611C169.33 18.6011 167.938 16.7051 165.154 16.7051C163.57 16.7051 162.25 17.3771 161.29 18.8651H161.242C160.618 17.5451 159.394 16.7051 157.786 16.7051C156.01 16.7051 154.834 17.5451 154.066 18.8171H153.994V17.0651H150.25V29.3531Z" fill="#333333"/>
<path fill-rule="evenodd" clip-rule="evenodd" d="M21.1843 0.961914C32.4461 0.961914 41.5756 10.0914 41.5756 21.3532C41.5756 32.6151 32.4461 41.7446 21.1843 41.7446C9.92246 41.7446 0.792969 32.6151 0.792969 21.3532C0.792969 10.0914 9.92246 0.961914 21.1843 0.961914ZM40.7929 21.3532C40.7929 10.5237 32.0138 1.74454 21.1843 1.74454C20.3107 1.74454 19.4506 1.80166 18.6072 1.91237C19.1521 1.86473 19.7035 1.84041 20.2607 1.84041C30.6089 1.84041 38.9978 10.2293 38.9978 20.5775C38.9978 30.9256 30.6089 39.3145 20.2607 39.3145C10.4638 39.3145 2.42296 31.7956 1.59413 22.2135C2.04438 32.6439 10.6429 40.9619 21.1843 40.9619C32.0138 40.9619 40.7929 32.1828 40.7929 21.3532ZM38.2151 20.5775C38.2151 10.6615 30.1767 2.62303 20.2607 2.62303C19.4556 2.62303 18.6628 2.67603 17.8857 2.77872C18.3642 2.73846 18.8483 2.71793 19.3372 2.71793C28.7718 2.71793 36.42 10.3662 36.42 19.8007C36.42 29.2353 28.7718 36.8835 19.3372 36.8835C10.4166 36.8835 3.09299 30.0458 2.32162 21.3256C2.71381 30.8946 10.5954 38.5319 20.2607 38.5319C30.1767 38.5319 38.2151 30.4934 38.2151 20.5775ZM19.3372 3.50056C28.3395 3.50056 35.6374 10.7984 35.6374 19.8007C35.6374 28.803 28.3395 36.1008 19.3372 36.1008C10.5435 36.1008 3.37614 29.1372 3.04879 20.4235C3.75554 28.2885 10.3648 34.4524 18.4138 34.4524C26.9341 34.4524 33.8413 27.5453 33.8413 19.0249C33.8413 10.5045 26.9341 3.59739 18.4138 3.59739C17.973 3.59739 17.5365 3.61588 17.1051 3.65211C17.8349 3.55218 18.58 3.50056 19.3372 3.50056ZM33.0586 19.0249C33.0586 10.9368 26.5019 4.38003 18.4138 4.38003C17.7304 4.38003 17.0579 4.42682 16.3995 4.5174C16.759 4.48926 17.1224 4.47493 17.4892 4.47493C25.096 4.47493 31.2625 10.6414 31.2625 18.2482C31.2625 25.8549 25.096 32.0214 17.4892 32.0214C10.3296 32.0214 4.44588 26.5585 3.77897 19.5736C4.0675 27.4075 10.5093 33.6698 18.4138 33.6698C26.5019 33.6698 33.0586 27.1131 33.0586 19.0249ZM17.4892 5.25756C24.6637 5.25756 30.4798 11.0737 30.4798 18.2482C30.4798 25.4227 24.6637 31.2388 17.4892 31.2388C10.4561 31.2388 4.72832 25.6496 4.50538 18.6706C5.10751 24.8008 10.2773 29.5904 16.5657 29.5904C23.2589 29.5904 28.6847 24.1645 28.6847 17.4714C28.6847 10.7783 23.2589 5.35245 16.5657 5.35245C16.2588 5.35245 15.9545 5.36386 15.6533 5.38628C16.2531 5.30144 16.866 5.25756 17.4892 5.25756ZM27.9021 17.4714C27.9021 11.2105 22.8266 6.13508 16.5657 6.13508C15.9942 6.13508 15.4326 6.17737 14.8838 6.25899C15.1343 6.24105 15.3872 6.23191 15.6423 6.23191C21.4212 6.23191 26.106 10.9167 26.106 16.6956C26.106 22.4746 21.4212 27.1593 15.6423 27.1593C10.2271 27.1593 5.77269 23.0458 5.23336 17.773C5.39325 23.8945 10.4057 28.8078 16.5657 28.8078C22.8266 28.8078 27.9021 23.7323 27.9021 17.4714ZM15.6423 7.01455C20.989 7.01455 25.3233 11.3489 25.3233 16.6956C25.3233 22.0424 20.989 26.3767 15.6423 26.3767C10.3636 26.3767 6.07168 22.152 5.96329 16.8993C6.45092 21.3032 10.1849 24.7283 14.7188 24.7283C19.5841 24.7283 23.5282 20.7842 23.5282 15.9189C23.5282 11.0536 19.5841 7.10944 14.7188 7.10944C14.5327 7.10944 14.348 7.1152 14.1648 7.12657C14.6465 7.0528 15.1399 7.01455 15.6423 7.01455ZM22.7456 15.9189C22.7456 11.4858 19.1519 7.89207 14.7188 7.89207C14.2736 7.89207 13.8369 7.92831 13.4114 7.998C13.5382 7.99132 13.6658 7.98794 13.7943 7.98794C17.7459 7.98794 20.9494 11.1914 20.9494 15.1431C20.9494 19.0948 17.7459 22.2983 13.7943 22.2983C10.1404 22.2983 7.12612 19.5593 6.69264 16.0225C6.74814 20.4079 10.3203 23.9457 14.7188 23.9457C19.1519 23.9457 22.7456 20.352 22.7456 15.9189ZM13.7943 8.77056C17.3137 8.77056 20.1668 11.6236 20.1668 15.1431C20.1668 18.6626 17.3137 21.5156 13.7943 21.5156C10.2748 21.5156 7.42175 18.6626 7.42175 15.1431C7.42175 15.1347 7.42177 15.1262 7.4218 15.1178C7.78822 17.7998 10.0882 19.8663 12.8708 19.8663C15.9083 19.8663 18.3707 17.4039 18.3707 14.3664C18.3707 11.3288 15.9083 8.86645 12.8708 8.86645C12.8021 8.86645 12.7337 8.86769 12.6656 8.87019C13.0319 8.80472 13.4091 8.77056 13.7943 8.77056ZM17.588 14.3664C17.588 11.7611 15.4761 9.64907 12.8708 9.64907C10.2655 9.64907 8.15352 11.7611 8.15352 14.3664C8.15352 16.9716 10.2655 19.0836 12.8708 19.0836C15.4761 19.0836 17.588 16.9716 17.588 14.3664Z" fill="#333333"/>
</g>
<defs>
<clipPath id="clip0_44_2">
<rect width="169" height="42" fill="white" transform="translate(0.5)"/>
</clipPath>
</defs>
</svg>
