<svg width="79" height="30" viewBox="0 0 79 30" fill="none" xmlns="http://www.w3.org/2000/svg">
<g clip-path="url(#clip0_44_16)">
<path d="M19.0147 0C15.9686 0 13.0473 1.21005 10.8934 3.36396L3.86396 10.3934C1.71005 12.5473 0.5 15.4686 0.5 18.5147C0.5 24.8579 5.64214 30 11.9853 30C15.0314 30 17.9527 28.7899 20.1066 26.636L24.9689 21.7737C24.969 21.7738 24.9689 21.7736 24.9689 21.7737L39.136 7.6066C40.1647 6.57791 41.5599 6 43.0147 6C45.4503 6 47.5152 7.58741 48.2311 9.78407L52.7022 5.31296C50.6625 2.11834 47.086 0 43.0147 0C39.9686 0 37.0473 1.21005 34.8934 3.36396L15.864 22.3934C14.8353 23.4221 13.4401 24 11.9853 24C8.95584 24 6.5 21.5442 6.5 18.5147C6.5 17.0599 7.07791 15.6647 8.1066 14.636L15.136 7.6066C16.1647 6.57791 17.5599 6 19.0147 6C21.4504 6 23.5152 7.58748 24.2311 9.78421L28.7023 5.31307C26.6626 2.1184 23.0861 0 19.0147 0Z" fill="#333333"/>
<path d="M39.8636 22.3934C38.8349 23.4221 37.4397 24 35.9849 24C33.5496 24 31.485 22.413 30.7689 20.2167L26.2979 24.6877C28.3377 27.8819 31.9139 30 35.9849 30C39.031 30 41.9524 28.7899 44.1063 26.636L63.1357 7.6066C64.1644 6.57791 65.5596 6 67.0144 6C70.0439 6 72.4996 8.45584 72.4996 11.4853C72.4996 12.9401 71.9218 14.3353 70.8931 15.364L63.8636 22.3934C62.8349 23.4221 61.4397 24 59.9849 24C57.5494 24 55.4847 22.4127 54.7687 20.2162L50.2977 24.6873C52.3374 27.8818 55.9137 30 59.9849 30C63.031 30 65.9523 28.7899 68.1062 26.636L75.1357 19.6066C77.2896 17.4527 78.4996 14.5314 78.4996 11.4853C78.4996 5.14214 73.3576 0 67.0144 0C63.9683 0 61.047 1.21005 58.8931 3.36396L39.8636 22.3934Z" fill="#333333"/>
</g>
<defs>
<clipPath id="clip0_44_16">
<rect width="78" height="30" fill="white" transform="translate(0.5)"/>
</clipPath>
</defs>
</svg>
