<svg width="177" height="40" viewBox="0 0 177 40" fill="none" xmlns="http://www.w3.org/2000/svg">
<g clip-path="url(#clip0_44_47)">
<path fill-rule="evenodd" clip-rule="evenodd" d="M15.5 28C14.1739 28 12.9021 27.4732 11.9645 26.5355C11.0268 25.5979 10.5 24.3261 10.5 23V0H0.5V23C0.5 31.284 7.216 38 15.5 38H26.5V28H15.5ZM45.5 10C44.3181 10 43.1478 10.2328 42.0558 10.6851C40.9639 11.1374 39.9718 11.8003 39.136 12.636C38.3003 13.4718 37.6374 14.4639 37.1851 15.5558C36.7328 16.6478 36.5 17.8181 36.5 19C36.5 20.1819 36.7328 21.3522 37.1851 22.4442C37.6374 23.5361 38.3003 24.5282 39.136 25.364C39.9718 26.1997 40.9639 26.8626 42.0558 27.3149C43.1478 27.7672 44.3181 28 45.5 28C47.8869 28 50.1761 27.0518 51.864 25.364C53.5518 23.6761 54.5 21.3869 54.5 19C54.5 16.6131 53.5518 14.3239 51.864 12.636C50.1761 10.9482 47.8869 10 45.5 10ZM26.5 19C26.5 8.507 35.007 0 45.5 0C55.993 0 64.5 8.507 64.5 19C64.5 29.493 55.993 38 45.5 38C35.007 38 26.5 29.493 26.5 19ZM153.5 10C151.113 10 148.824 10.9482 147.136 12.636C145.448 14.3239 144.5 16.6131 144.5 19C144.5 21.3869 145.448 23.6761 147.136 25.364C148.824 27.0518 151.113 28 153.5 28C155.887 28 158.176 27.0518 159.864 25.364C161.552 23.6761 162.5 21.3869 162.5 19C162.5 16.6131 161.552 14.3239 159.864 12.636C158.176 10.9482 155.887 10 153.5 10ZM134.5 19C134.5 8.507 143.007 0 153.5 0C163.993 0 172.5 8.507 172.5 19C172.5 29.493 163.993 38 153.5 38C143.007 38 134.5 29.493 134.5 19ZM85.5 0C75.007 0 66.5 8.507 66.5 19C66.5 29.493 75.007 38 85.5 38H113.5C115.469 38 117.368 37.7 119.154 37.144L124.5 40L130.268 29.196C131.733 26.4457 132.5 23.3773 132.5 20.261V19C132.5 8.507 123.993 0 113.5 0H85.5ZM122.5 19C122.5 16.6131 121.552 14.3239 119.864 12.636C118.176 10.9482 115.887 10 113.5 10H85.5C84.3181 10 83.1478 10.2328 82.0558 10.6851C80.9639 11.1374 79.9718 11.8003 79.136 12.636C78.3003 13.4718 77.6374 14.4639 77.1851 15.5558C76.7328 16.6478 76.5 17.8181 76.5 19C76.5 20.1819 76.7328 21.3522 77.1851 22.4442C77.6374 23.5361 78.3003 24.5282 79.136 25.364C79.9718 26.1997 80.9639 26.8626 82.0558 27.3149C83.1478 27.7672 84.3181 28 85.5 28H113.5C115.875 28.0001 118.154 27.0615 119.839 25.3888C121.525 23.716 122.482 21.4448 122.5 19.07V19Z" fill="#333333"/>
<path d="M176.5 2.5C176.5 3.16304 176.237 3.79893 175.768 4.26777C175.299 4.73661 174.663 5 174 5C173.337 5 172.701 4.73661 172.232 4.26777C171.763 3.79893 171.5 3.16304 171.5 2.5C171.5 1.83696 171.763 1.20107 172.232 0.732233C172.701 0.263392 173.337 0 174 0C174.663 0 175.299 0.263392 175.768 0.732233C176.237 1.20107 176.5 1.83696 176.5 2.5Z" fill="#333333"/>
</g>
<defs>
<clipPath id="clip0_44_47">
<rect width="176" height="40" fill="white" transform="translate(0.5)"/>
</clipPath>
</defs>
</svg>
