<svg width="125" height="32" viewBox="0 0 125 32" fill="none" xmlns="http://www.w3.org/2000/svg">
<path d="M37.3701 10.0697H40.3701V22.1997H37.3701V10.0697ZM41.5601 17.6197C41.5601 14.6197 43.4001 12.8297 46.2401 12.8297C49.0801 12.8297 50.9201 14.6197 50.9201 17.6197C50.9201 20.6197 49.1201 22.4197 46.2401 22.4197C43.3601 22.4197 41.5601 20.6697 41.5601 17.6197ZM47.9101 17.6197C47.9101 15.9697 47.2601 14.9997 46.2401 14.9997C45.2201 14.9997 44.5801 15.9997 44.5801 17.6197C44.5801 19.2397 45.2101 20.2197 46.2401 20.2197C47.2701 20.2197 47.9101 19.2997 47.9101 17.6297V17.6197ZM52.0501 22.7897H54.9301C55.0672 23.0942 55.2989 23.3463 55.5908 23.5085C55.8827 23.6706 56.2192 23.7342 56.5501 23.6897C57.6901 23.6897 58.2901 23.0697 58.2901 22.1697V20.4897H58.2301C57.9911 21.0046 57.6032 21.436 57.1166 21.7284C56.63 22.0207 56.0669 22.1605 55.5001 22.1297C53.3101 22.1297 51.8601 20.4597 51.8601 17.5897C51.8601 14.7197 53.2401 12.9097 55.5401 12.9097C56.1247 12.8868 56.7023 13.0431 57.1956 13.3576C57.6889 13.6722 58.0743 14.13 58.3001 14.6697V12.9997H61.3001V22.0997C61.3001 24.2897 59.3701 25.6497 56.5201 25.6497C53.8701 25.6497 52.2201 24.4597 52.0501 22.7997V22.7897ZM58.3001 17.6097C58.3001 16.1497 57.6301 15.2297 56.5701 15.2297C55.5101 15.2297 54.8601 16.1397 54.8601 17.6097C54.8601 19.0797 55.5001 19.9097 56.5701 19.9097C57.6401 19.9097 58.3001 19.0997 58.3001 17.6197V17.6097ZM62.4301 17.6097C62.4301 14.6097 64.2701 12.8197 67.1101 12.8197C69.9501 12.8197 71.8001 14.6097 71.8001 17.6097C71.8001 20.6097 70.0001 22.4097 67.1101 22.4097C64.2201 22.4097 62.4301 20.6697 62.4301 17.6197V17.6097ZM68.7801 17.6097C68.7801 15.9597 68.1301 14.9897 67.1101 14.9897C66.0901 14.9897 65.5001 15.9997 65.5001 17.6297C65.5001 19.2597 66.1301 20.2297 67.1501 20.2297C68.1701 20.2297 68.7801 19.2997 68.7801 17.6297V17.6097ZM72.9401 10.8197C72.9322 10.5168 73.0145 10.2184 73.1764 9.96231C73.3384 9.70621 73.5727 9.50396 73.8497 9.3812C74.1267 9.25844 74.4339 9.2207 74.7324 9.27275C75.0309 9.32481 75.3072 9.46431 75.5263 9.67358C75.7455 9.88286 75.8975 10.1525 75.9632 10.4483C76.0289 10.7441 76.0053 11.0527 75.8953 11.3351C75.7854 11.6174 75.5941 11.8608 75.3457 12.0343C75.0974 12.2078 74.803 12.3037 74.5001 12.3097C74.2993 12.3235 74.0978 12.2956 73.9083 12.2278C73.7187 12.16 73.5453 12.0538 73.3988 11.9157C73.2523 11.7777 73.1359 11.6108 73.057 11.4256C72.978 11.2405 72.9382 11.041 72.9401 10.8397V10.8197ZM72.9401 13.0197H75.9401V22.1997H72.9401V13.0197ZM86.8301 17.6097C86.8301 20.6097 85.5001 22.3197 83.2201 22.3197C82.6355 22.3572 82.0534 22.2143 81.5526 21.9103C81.0518 21.6062 80.6565 21.1557 80.4201 20.6197H80.3601V25.1397H77.3601V12.9997H80.3601V14.6397H80.4201C80.6455 14.0948 81.0333 13.6326 81.5307 13.3159C82.0281 12.9992 82.611 12.8434 83.2001 12.8697C85.5001 12.9097 86.8701 14.6297 86.8701 17.6297L86.8301 17.6097ZM83.8301 17.6097C83.8301 16.1497 83.1601 15.2197 82.1101 15.2197C81.0601 15.2197 80.3901 16.1597 80.3801 17.6097C80.3701 19.0597 81.0601 19.9897 82.1101 19.9897C83.1601 19.9897 83.8301 19.0797 83.8301 17.6297V17.6097ZM91.9801 12.8097C94.4701 12.8097 95.9801 13.9897 96.0501 15.8797H93.3201C93.3201 15.2297 92.7801 14.8197 91.9501 14.8197C91.1201 14.8197 90.7501 15.1397 90.7501 15.6097C90.7501 16.0797 91.0801 16.2297 91.7501 16.3697L93.6701 16.7597C95.5001 17.1497 96.2801 17.8897 96.2801 19.2797C96.2801 21.1797 94.5501 22.3997 92.0001 22.3997C89.4501 22.3997 87.7801 21.1797 87.6501 19.3097H90.5401C90.6301 19.9897 91.1701 20.3897 92.0501 20.3897C92.9301 20.3897 93.3301 20.0997 93.3301 19.6197C93.3301 19.1397 93.0501 19.0397 92.3301 18.8897L90.6001 18.5197C88.8101 18.1497 87.8701 17.1997 87.8701 15.7997C87.8901 13.9997 89.5001 12.8297 91.9801 12.8297V12.8097ZM106.29 22.1797H103.4V20.4697H103.34C103.181 21.0438 102.831 21.5463 102.347 21.8938C101.863 22.2412 101.275 22.4127 100.68 22.3797C100.224 22.4056 99.7683 22.3334 99.3428 22.1679C98.9173 22.0024 98.5323 21.7476 98.2138 21.4205C97.8953 21.0935 97.6506 20.7018 97.4965 20.2721C97.3423 19.8424 97.2822 19.3846 97.3201 18.9297V12.9997H100.32V18.2397C100.32 19.3297 100.88 19.9097 101.81 19.9097C102.028 19.9101 102.244 19.864 102.443 19.7743C102.641 19.6846 102.819 19.5534 102.963 19.3896C103.106 19.2257 103.214 19.033 103.277 18.8244C103.34 18.6157 103.359 18.3959 103.33 18.1797V12.9997H106.33L106.29 22.1797ZM107.74 12.9997H110.64V14.7697H110.7C110.859 14.2032 111.202 13.7054 111.674 13.3544C112.146 13.0034 112.722 12.8188 113.31 12.8297C113.909 12.7818 114.503 12.9609 114.976 13.3315C115.448 13.7021 115.764 14.2369 115.86 14.8297H115.92C116.101 14.2306 116.477 13.709 116.988 13.3469C117.498 12.9848 118.115 12.8028 118.74 12.8297C119.148 12.816 119.554 12.8883 119.932 13.0419C120.311 13.1954 120.652 13.4269 120.935 13.7211C121.218 14.0154 121.436 14.3659 121.575 14.7498C121.713 15.1337 121.77 15.5426 121.74 15.9497V22.1997H118.74V16.7497C118.74 15.7497 118.29 15.2897 117.45 15.2897C117.263 15.2881 117.077 15.3267 116.906 15.4029C116.735 15.4791 116.582 15.5911 116.458 15.7314C116.334 15.8717 116.241 16.0369 116.186 16.216C116.131 16.3952 116.116 16.584 116.14 16.7697V22.1997H113.29V16.7097C113.29 15.7897 112.84 15.2897 112.02 15.2897C111.831 15.2898 111.643 15.33 111.471 15.4077C111.298 15.4855 111.143 15.599 111.018 15.7407C110.892 15.8824 110.798 16.0492 110.741 16.2301C110.685 16.4109 110.667 16.6016 110.69 16.7897V22.1997H107.69L107.74 12.9997Z" fill="#333333"/>
<path d="M28.9796 10.6199C28.4707 9.45625 27.7972 8.37182 26.9796 7.39989C25.7711 5.92023 24.2629 4.71328 22.5543 3.85849C20.8457 3.00371 18.9754 2.52046 17.0666 2.44055C15.1578 2.36064 13.2537 2.68588 11.4796 3.39488C9.70558 4.10387 8.10178 5.18054 6.77381 6.55402C5.44583 7.92749 4.42378 9.56664 3.77493 11.3636C3.12608 13.1605 2.86513 15.0745 3.00927 16.9795C3.15342 18.8846 3.69937 20.7375 4.61121 22.4163C5.52305 24.0952 6.7801 25.5619 8.29962 26.7199C9.27462 27.4778 10.352 28.0939 11.4996 28.5499C13.1086 29.2093 14.8307 29.5489 16.5696 29.5499C20.159 29.542 23.5988 28.1112 26.1351 25.5712C28.6713 23.0312 30.097 19.5893 30.0996 15.9999C30.1022 14.1484 29.7209 12.3165 28.9796 10.6199ZM16.5596 5.18988C18.1212 5.18972 19.6639 5.53102 21.0796 6.18988C20.7344 6.33905 20.3714 6.44324 19.9996 6.49989C18.7762 6.67698 17.6429 7.24496 16.7688 8.11906C15.8947 8.99315 15.3267 10.1265 15.1496 11.3499C15.0719 12.036 14.7598 12.6743 14.2661 13.1571C13.7724 13.6399 13.1273 13.9375 12.4396 13.9999C11.2162 14.177 10.0829 14.745 9.20879 15.6191C8.3347 16.4932 7.76671 17.6265 7.58962 18.8499C7.52966 19.5023 7.25131 20.1154 6.79962 20.5899C6.02027 18.9432 5.67017 17.126 5.78189 15.3076C5.89361 13.4892 6.46352 11.7286 7.43859 10.1896C8.41365 8.65068 9.76219 7.3834 11.3587 6.50573C12.9552 5.62806 14.7478 5.16853 16.5696 5.16988L16.5596 5.18988ZM8.28962 22.9999C8.40962 22.8899 8.52962 22.7899 8.64962 22.6699C9.53927 21.8074 10.1103 20.6688 10.2696 19.4399C10.3342 18.7491 10.6426 18.1039 11.1396 17.6199C11.6179 17.1221 12.2616 16.8162 12.9496 16.7599C14.173 16.5828 15.3063 16.0148 16.1804 15.1407C17.0545 14.2666 17.6225 13.1333 17.7996 11.9099C17.8429 11.1874 18.1529 10.5067 18.6696 9.99989C19.1597 9.51174 19.8095 9.21699 20.4996 9.16988C21.6235 9.01525 22.6717 8.5156 23.4996 7.73989C24.4423 8.52196 25.2409 9.46278 25.8596 10.5199C25.8216 10.5712 25.778 10.6182 25.7296 10.6599C25.2523 11.1621 24.6094 11.4747 23.9196 11.5399C22.6949 11.7139 21.5599 12.2809 20.6852 13.1555C19.8106 14.0302 19.2436 15.1652 19.0696 16.3899C18.9991 17.0783 18.6928 17.7212 18.2026 18.2096C17.7123 18.6981 17.0683 19.002 16.3796 19.0699C15.1526 19.2456 14.0151 19.8125 13.1359 20.6862C12.2568 21.56 11.6829 22.694 11.4996 23.9199C11.4458 24.4086 11.2779 24.8779 11.0096 25.2899C9.98361 24.6807 9.06471 23.9071 8.28962 22.9999ZM16.5596 26.8599C15.5449 26.861 14.535 26.7196 13.5596 26.4399C13.8933 25.8179 14.1102 25.14 14.1996 24.4399C14.2697 23.753 14.5746 23.1113 15.0628 22.6231C15.551 22.1349 16.1927 21.83 16.8796 21.7599C18.1048 21.5848 19.2404 21.0177 20.1165 20.1434C20.9925 19.2692 21.562 18.1347 21.7396 16.9099C21.8097 16.223 22.1146 15.5813 22.6028 15.0931C23.091 14.6049 23.7327 14.3 24.4196 14.2299C25.3416 14.11 26.2204 13.7667 26.9796 13.2299C27.4012 14.8278 27.4511 16.501 27.1256 18.1212C26.8001 19.7414 26.1077 21.2656 25.1017 22.5767C24.0957 23.8877 22.8028 24.951 21.322 25.6848C19.8413 26.4186 18.2122 26.8035 16.5596 26.8099V26.8599Z" fill="#333333"/>
</svg>
